<mxfile host="65bd71144e">
    <diagram id="IfaHLEzc9hbXiV-kEbx_" name="Page-1">
        <mxGraphModel dx="1063" dy="709" grid="1" gridSize="10" guides="1" tooltips="1" connect="1" arrows="1" fold="1" page="1" pageScale="1" pageWidth="1600" pageHeight="900" math="0" shadow="0">
            <root>
                <mxCell id="0"/>
                <mxCell id="1" parent="0"/>
                <mxCell id="3" value="3DR&#10;Telemetry" style="rounded=1;fillColor=#76608a;fontColor=#ffffff;strokeColor=#432D57;fontSize=16;" parent="1" vertex="1">
                    <mxGeometry x="500" y="350" width="110" height="80" as="geometry"/>
                </mxCell>
                <mxCell id="5" value="Telemetry&#10;Receive&#10;Driver" style="rounded=1;fillColor=#60a917;fontColor=#ffffff;strokeColor=#2D7600;fontSize=16;" parent="1" vertex="1">
                    <mxGeometry x="690" y="230" width="110" height="80" as="geometry"/>
                </mxCell>
                <mxCell id="8" value="Decrypt" style="rounded=1;fillColor=#60a917;fontColor=#ffffff;strokeColor=#2D7600;fontSize=16;" parent="1" vertex="1">
                    <mxGeometry x="910" y="230" width="110" height="80" as="geometry"/>
                </mxCell>
                <mxCell id="9" value="Encrypt" style="rounded=1;fillColor=#60a917;fontColor=#ffffff;strokeColor=#2D7600;fontSize=16;" parent="1" vertex="1">
                    <mxGeometry x="690" y="470" width="110" height="80" as="geometry"/>
                </mxCell>
                <mxCell id="11" value="Pixhawk&#10;UART" style="rounded=1;fillColor=#76608a;fontColor=#ffffff;strokeColor=#432D57;fontSize=16;" parent="1" vertex="1">
                    <mxGeometry x="1100" y="350" width="110" height="80" as="geometry"/>
                </mxCell>
                <mxCell id="22" value="UART&#10;Receive&#10;Driver" style="rounded=1;fillColor=#60a917;fontColor=#ffffff;strokeColor=#2D7600;fontSize=16;" parent="1" vertex="1">
                    <mxGeometry x="910" y="470" width="110" height="80" as="geometry"/>
                </mxCell>
                <mxCell id="27" value="Key&#10;Exchange" style="rounded=1;fillColor=#60a917;fontColor=#ffffff;strokeColor=#2D7600;fontSize=16;" parent="1" vertex="1">
                    <mxGeometry x="800" y="350" width="110" height="80" as="geometry"/>
                </mxCell>
                <mxCell id="30" value="Caption" style="swimlane;fontStyle=0;childLayout=stackLayout;horizontal=1;startSize=30;horizontalStack=0;resizeParent=1;resizeParentMax=0;resizeLast=0;collapsible=1;marginBottom=0;fontSize=16;" parent="1" vertex="1">
                    <mxGeometry x="430" y="490" width="210" height="150" as="geometry"/>
                </mxCell>
                <mxCell id="31" value="Physical Connection" style="text;strokeColor=none;fillColor=none;align=left;verticalAlign=middle;spacingLeft=4;spacingRight=4;overflow=hidden;points=[[0,0.5],[1,0.5]];portConstraint=eastwest;rotatable=0;fontSize=16;" parent="30" vertex="1">
                    <mxGeometry y="30" width="210" height="30" as="geometry"/>
                </mxCell>
                <mxCell id="28" value="" style="edgeStyle=none;exitX=1;exitY=0;exitDx=0;exitDy=0;strokeWidth=3;fillColor=#76608a;strokeColor=#432D57;" parent="30" edge="1">
                    <mxGeometry relative="1" as="geometry">
                        <mxPoint x="160" y="44.58000000000004" as="sourcePoint"/>
                        <mxPoint x="200" y="44.58000000000004" as="targetPoint"/>
                    </mxGeometry>
                </mxCell>
                <mxCell id="32" value="Dataport" style="text;strokeColor=none;fillColor=none;align=left;verticalAlign=middle;spacingLeft=4;spacingRight=4;overflow=hidden;points=[[0,0.5],[1,0.5]];portConstraint=eastwest;rotatable=0;fontSize=16;" parent="30" vertex="1">
                    <mxGeometry y="60" width="210" height="30" as="geometry"/>
                </mxCell>
                <mxCell id="34" value="" style="edgeStyle=none;exitX=1;exitY=0;exitDx=0;exitDy=0;strokeWidth=3;fillColor=#1ba1e2;strokeColor=#006EAF;" parent="30" edge="1">
                    <mxGeometry relative="1" as="geometry">
                        <mxPoint x="160" y="74.58000000000004" as="sourcePoint"/>
                        <mxPoint x="200" y="74.58000000000004" as="targetPoint"/>
                    </mxGeometry>
                </mxCell>
                <mxCell id="35" value="" style="edgeStyle=none;exitX=1;exitY=0;exitDx=0;exitDy=0;strokeWidth=3;fillColor=#fa6800;strokeColor=#C73500;" parent="30" edge="1">
                    <mxGeometry relative="1" as="geometry">
                        <mxPoint x="160" y="104.58000000000004" as="sourcePoint"/>
                        <mxPoint x="200" y="104.58000000000004" as="targetPoint"/>
                    </mxGeometry>
                </mxCell>
                <mxCell id="33" value="RPC Call" style="text;strokeColor=none;fillColor=none;align=left;verticalAlign=middle;spacingLeft=4;spacingRight=4;overflow=hidden;points=[[0,0.5],[1,0.5]];portConstraint=eastwest;rotatable=0;fontSize=16;" parent="30" vertex="1">
                    <mxGeometry y="90" width="210" height="30" as="geometry"/>
                </mxCell>
                <mxCell id="37" value="" style="edgeStyle=none;exitX=1;exitY=0;exitDx=0;exitDy=0;strokeWidth=3;fillColor=#60a917;strokeColor=#2D7600;" parent="30" edge="1">
                    <mxGeometry relative="1" as="geometry">
                        <mxPoint x="160" y="134.58000000000004" as="sourcePoint"/>
                        <mxPoint x="200" y="134.58000000000004" as="targetPoint"/>
                    </mxGeometry>
                </mxCell>
                <mxCell id="36" value="Notification" style="text;strokeColor=none;fillColor=none;align=left;verticalAlign=middle;spacingLeft=4;spacingRight=4;overflow=hidden;points=[[0,0.5],[1,0.5]];portConstraint=eastwest;rotatable=0;fontSize=16;" parent="30" vertex="1">
                    <mxGeometry y="120" width="210" height="30" as="geometry"/>
                </mxCell>
                <mxCell id="44" value="" style="endArrow=classic;html=1;exitX=0;exitY=0;exitDx=0;exitDy=0;entryX=0.5;entryY=1;entryDx=0;entryDy=0;strokeWidth=3;fillColor=#60a917;strokeColor=#2D7600;" parent="1" source="27" target="5" edge="1">
                    <mxGeometry relative="1" as="geometry">
                        <mxPoint x="630" y="370" as="sourcePoint"/>
                        <mxPoint x="710" y="330" as="targetPoint"/>
                    </mxGeometry>
                </mxCell>
                <mxCell id="45" value="Switch buffer" style="edgeLabel;resizable=0;align=center;verticalAlign=middle;labelBackgroundColor=none;fontSize=16;" parent="44" connectable="0" vertex="1">
                    <mxGeometry relative="1" as="geometry"/>
                </mxCell>
                <mxCell id="46" value="" style="endArrow=classic;html=1;exitX=1;exitY=1;exitDx=0;exitDy=0;entryX=0.5;entryY=0;entryDx=0;entryDy=0;strokeWidth=3;fillColor=#60a917;strokeColor=#2D7600;" parent="1" source="27" target="22" edge="1">
                    <mxGeometry relative="1" as="geometry">
                        <mxPoint x="640" y="380" as="sourcePoint"/>
                        <mxPoint x="720" y="340" as="targetPoint"/>
                    </mxGeometry>
                </mxCell>
                <mxCell id="47" value="Switch buffer" style="edgeLabel;resizable=0;align=center;verticalAlign=middle;labelBackgroundColor=none;fontSize=16;" parent="46" connectable="0" vertex="1">
                    <mxGeometry relative="1" as="geometry"/>
                </mxCell>
                <mxCell id="48" value="" style="endArrow=classic;html=1;exitX=1;exitY=0;exitDx=0;exitDy=0;entryX=0.5;entryY=1;entryDx=0;entryDy=0;strokeWidth=3;fillColor=#fa6800;strokeColor=#C73500;" parent="1" source="27" target="8" edge="1">
                    <mxGeometry relative="1" as="geometry">
                        <mxPoint x="650" y="390" as="sourcePoint"/>
                        <mxPoint x="730" y="350" as="targetPoint"/>
                    </mxGeometry>
                </mxCell>
                <mxCell id="49" value="Key" style="edgeLabel;resizable=0;align=center;verticalAlign=middle;labelBackgroundColor=none;fontSize=16;" parent="48" connectable="0" vertex="1">
                    <mxGeometry relative="1" as="geometry"/>
                </mxCell>
                <mxCell id="50" value="" style="endArrow=classic;html=1;exitX=0;exitY=1;exitDx=0;exitDy=0;entryX=0.5;entryY=0;entryDx=0;entryDy=0;strokeWidth=3;fillColor=#fa6800;strokeColor=#C73500;" parent="1" source="27" target="9" edge="1">
                    <mxGeometry relative="1" as="geometry">
                        <mxPoint x="920" y="360" as="sourcePoint"/>
                        <mxPoint x="975" y="320" as="targetPoint"/>
                    </mxGeometry>
                </mxCell>
                <mxCell id="51" value="Key" style="edgeLabel;resizable=0;align=center;verticalAlign=middle;labelBackgroundColor=none;fontSize=16;" parent="50" connectable="0" vertex="1">
                    <mxGeometry relative="1" as="geometry"/>
                </mxCell>
                <mxCell id="52" value="" style="endArrow=classic;html=1;exitX=1;exitY=0.5;exitDx=0;exitDy=0;entryX=0;entryY=0.5;entryDx=0;entryDy=0;strokeWidth=3;fillColor=#1ba1e2;strokeColor=#006EAF;" parent="1" source="5" target="8" edge="1">
                    <mxGeometry relative="1" as="geometry">
                        <mxPoint x="930" y="370" as="sourcePoint"/>
                        <mxPoint x="985" y="330" as="targetPoint"/>
                    </mxGeometry>
                </mxCell>
                <mxCell id="53" value="Ringbuffer" style="edgeLabel;resizable=0;align=center;verticalAlign=middle;labelBackgroundColor=none;fontSize=16;" parent="52" connectable="0" vertex="1">
                    <mxGeometry relative="1" as="geometry"/>
                </mxCell>
                <mxCell id="54" value="" style="endArrow=classic;html=1;exitX=0;exitY=0.5;exitDx=0;exitDy=0;entryX=1;entryY=0.5;entryDx=0;entryDy=0;strokeWidth=3;fillColor=#1ba1e2;strokeColor=#006EAF;" parent="1" source="22" target="9" edge="1">
                    <mxGeometry relative="1" as="geometry">
                        <mxPoint x="810" y="280" as="sourcePoint"/>
                        <mxPoint x="920" y="280" as="targetPoint"/>
                    </mxGeometry>
                </mxCell>
                <mxCell id="55" value="Ringbuffer" style="edgeLabel;resizable=0;align=center;verticalAlign=middle;labelBackgroundColor=none;fontSize=16;" parent="54" connectable="0" vertex="1">
                    <mxGeometry relative="1" as="geometry"/>
                </mxCell>
                <mxCell id="59" value="" style="endArrow=classic;html=1;exitX=1;exitY=0;exitDx=0;exitDy=0;entryX=0;entryY=1;entryDx=0;entryDy=0;strokeWidth=3;fillColor=#76608a;strokeColor=#432D57;" parent="1" source="3" target="5" edge="1">
                    <mxGeometry relative="1" as="geometry">
                        <mxPoint x="620" y="349" as="sourcePoint"/>
                        <mxPoint x="780" y="349" as="targetPoint"/>
                    </mxGeometry>
                </mxCell>
                <mxCell id="61" value="TX" style="edgeLabel;resizable=0;align=left;verticalAlign=bottom;fontSize=16;" parent="59" connectable="0" vertex="1">
                    <mxGeometry x="-1" relative="1" as="geometry"/>
                </mxCell>
                <mxCell id="62" value="RX" style="edgeLabel;resizable=0;align=right;verticalAlign=bottom;fontSize=16;" parent="59" connectable="0" vertex="1">
                    <mxGeometry x="1" relative="1" as="geometry"/>
                </mxCell>
                <mxCell id="63" value="" style="endArrow=classic;html=1;exitX=0;exitY=0;exitDx=0;exitDy=0;entryX=1;entryY=1;entryDx=0;entryDy=0;strokeWidth=3;fillColor=#76608a;strokeColor=#432D57;" parent="1" source="9" target="3" edge="1">
                    <mxGeometry relative="1" as="geometry">
                        <mxPoint x="620" y="360" as="sourcePoint"/>
                        <mxPoint x="700" y="320" as="targetPoint"/>
                    </mxGeometry>
                </mxCell>
                <mxCell id="65" value="TX" style="edgeLabel;resizable=0;align=left;verticalAlign=bottom;fontSize=16;" parent="63" connectable="0" vertex="1">
                    <mxGeometry x="-1" relative="1" as="geometry"/>
                </mxCell>
                <mxCell id="66" value="RX" style="edgeLabel;resizable=0;align=right;verticalAlign=bottom;fontSize=16;" parent="63" connectable="0" vertex="1">
                    <mxGeometry x="1" relative="1" as="geometry"/>
                </mxCell>
                <mxCell id="67" value="" style="endArrow=classic;html=1;exitX=1;exitY=1;exitDx=0;exitDy=0;entryX=0;entryY=0;entryDx=0;entryDy=0;strokeWidth=3;fillColor=#76608a;strokeColor=#432D57;" parent="1" source="8" target="11" edge="1">
                    <mxGeometry relative="1" as="geometry">
                        <mxPoint x="630" y="370" as="sourcePoint"/>
                        <mxPoint x="710" y="330" as="targetPoint"/>
                    </mxGeometry>
                </mxCell>
                <mxCell id="69" value="TX" style="edgeLabel;resizable=0;align=left;verticalAlign=bottom;fontSize=16;" parent="67" connectable="0" vertex="1">
                    <mxGeometry x="-1" relative="1" as="geometry"/>
                </mxCell>
                <mxCell id="70" value="RX" style="edgeLabel;resizable=0;align=right;verticalAlign=bottom;fontSize=16;" parent="67" connectable="0" vertex="1">
                    <mxGeometry x="1" relative="1" as="geometry"/>
                </mxCell>
                <mxCell id="71" value="" style="endArrow=classic;html=1;exitX=0;exitY=1;exitDx=0;exitDy=0;entryX=1;entryY=0;entryDx=0;entryDy=0;strokeWidth=3;fillColor=#76608a;strokeColor=#432D57;" parent="1" source="11" target="22" edge="1">
                    <mxGeometry relative="1" as="geometry">
                        <mxPoint x="640" y="380" as="sourcePoint"/>
                        <mxPoint x="720" y="340" as="targetPoint"/>
                    </mxGeometry>
                </mxCell>
                <mxCell id="73" value="TX" style="edgeLabel;resizable=0;align=left;verticalAlign=bottom;fontSize=16;" parent="71" connectable="0" vertex="1">
                    <mxGeometry x="-1" relative="1" as="geometry"/>
                </mxCell>
                <mxCell id="74" value="RX" style="edgeLabel;resizable=0;align=right;verticalAlign=bottom;fontSize=16;" parent="71" connectable="0" vertex="1">
                    <mxGeometry x="1" relative="1" as="geometry"/>
                </mxCell>
                <mxCell id="75" value="" style="endArrow=classic;html=1;exitX=1;exitY=1;exitDx=0;exitDy=0;entryX=0.75;entryY=0;entryDx=0;entryDy=0;strokeWidth=3;fillColor=#1ba1e2;strokeColor=#006EAF;" edge="1" parent="1" source="5" target="27">
                    <mxGeometry relative="1" as="geometry">
                        <mxPoint x="810" y="280" as="sourcePoint"/>
                        <mxPoint x="920" y="280" as="targetPoint"/>
                    </mxGeometry>
                </mxCell>
                <mxCell id="76" value="Ringbuffer" style="edgeLabel;resizable=0;align=center;verticalAlign=middle;labelBackgroundColor=none;fontSize=16;" connectable="0" vertex="1" parent="75">
                    <mxGeometry relative="1" as="geometry">
                        <mxPoint y="-20" as="offset"/>
                    </mxGeometry>
                </mxCell>
                <mxCell id="77" value="" style="endArrow=classic;html=1;exitX=0;exitY=0;exitDx=0;exitDy=0;entryX=0.25;entryY=1;entryDx=0;entryDy=0;strokeWidth=3;fillColor=#1ba1e2;strokeColor=#006EAF;" edge="1" parent="1" source="22" target="27">
                    <mxGeometry relative="1" as="geometry">
                        <mxPoint x="820" y="290" as="sourcePoint"/>
                        <mxPoint x="930" y="290" as="targetPoint"/>
                    </mxGeometry>
                </mxCell>
                <mxCell id="78" value="Ringbuffer" style="edgeLabel;resizable=0;align=center;verticalAlign=middle;labelBackgroundColor=none;fontSize=16;" connectable="0" vertex="1" parent="77">
                    <mxGeometry relative="1" as="geometry">
                        <mxPoint x="-14" y="10" as="offset"/>
                    </mxGeometry>
                </mxCell>
            </root>
        </mxGraphModel>
    </diagram>
</mxfile>